<?xml version="1.0" encoding="UTF-8" standalone="no"?>
<!DOCTYPE svg PUBLIC "-//W3C//DTD SVG 1.1//EN" "http://www.w3.org/Graphics/SVG/1.1/DTD/svg11.dtd">
<svg width="100%" height="100%" viewBox="0 0 1500 1500" version="1.1" xmlns="http://www.w3.org/2000/svg" xmlns:xlink="http://www.w3.org/1999/xlink" xml:space="preserve" xmlns:serif="http://www.serif.com/" style="fill-rule:evenodd;clip-rule:evenodd;stroke-linejoin:round;stroke-miterlimit:2;">
    <g transform="matrix(1,0,0,1,7.07536,-25.9434)">
        <path d="M741.451,103.774C1110.64,103.774 1410.38,403.51 1410.38,772.701C1410.38,1141.89 1110.64,1441.63 741.451,1441.63C372.26,1441.63 72.524,1141.89 72.524,772.701C72.524,403.51 372.26,103.774 741.451,103.774ZM741.451,204.378C1055.12,204.378 1309.77,459.035 1309.77,772.701C1309.77,1086.37 1055.12,1341.02 741.451,1341.02C427.785,1341.02 173.128,1086.37 173.128,772.701C173.128,459.035 427.785,204.378 741.451,204.378Z" style="fill:rgb(4,123,23);"/>
    </g>
    <g transform="matrix(0.828893,0,0,0.828893,-93.2373,167.797)">
        <text x="350.825px" y="1088.45px" style="font-family:'Pacifico-Regular', 'Pacifico';font-size:921.917px;fill:rgb(7,117,29);">VI</text>
    </g>
</svg>
