<svg width="205" height="82" viewBox="0 0 205 82" fill="none" xmlns="http://www.w3.org/2000/svg">
<mask id="path-1-outside-1" maskUnits="userSpaceOnUse" x="0.780624" y="0.255997" width="204" height="81" fill="black">
<rect fill="white" x="0.780624" y="0.255997" width="204" height="81"/>
<path d="M28.9006 1.352C29.3166 1.352 29.6686 1.496 29.9566 1.784C30.2446 2.04 30.3886 2.344 30.3886 2.696C30.3886 2.92 30.3406 3.16 30.2446 3.41599L17.4286 34.04C17.3006 34.328 17.1086 34.568 16.8526 34.76C16.5966 34.92 16.3246 35 16.0366 35C15.7486 35 15.4766 34.92 15.2206 34.76C14.9966 34.6 14.8206 34.376 14.6926 34.088L1.92462 3.512C1.82862 3.31999 1.78062 3.06399 1.78062 2.74399C1.78062 2.32799 1.92462 1.99199 2.21263 1.736C2.50063 1.48 2.82063 1.352 3.17263 1.352C3.84462 1.352 4.32462 1.704 4.61262 2.408L16.1806 30.056L27.5566 2.31199C27.7166 2.02399 27.9086 1.79999 28.1326 1.63999C28.3886 1.448 28.6446 1.352 28.9006 1.352Z"/>
<path d="M40.9985 33.512C40.9665 33.928 40.8065 34.28 40.5185 34.568C40.2305 34.856 39.8785 35 39.4625 35C39.0145 35 38.6465 34.872 38.3585 34.616C38.1025 34.328 37.9745 33.96 37.9745 33.512V2.888C37.9745 2.44 38.1185 2.088 38.4065 1.832C38.6945 1.54399 39.0625 1.39999 39.5105 1.39999C39.9265 1.39999 40.2785 1.54399 40.5665 1.832C40.8545 2.12 40.9985 2.472 40.9985 2.888V33.512Z"/>
<path d="M75.9425 32.408C76.4225 32.728 76.6625 33.128 76.6625 33.608C76.6625 33.768 76.5985 33.976 76.4705 34.232C76.3425 34.456 76.1665 34.632 75.9425 34.76C75.7185 34.888 75.4785 34.952 75.2225 34.952C74.9025 34.952 74.6305 34.888 74.4065 34.76C73.5105 34.248 72.7905 33.416 72.2465 32.264C71.7025 31.112 71.4305 29.272 71.4305 26.744C71.4305 24.504 70.8065 22.936 69.5585 22.04C68.3105 21.112 66.8225 20.648 65.0945 20.648H54.4385V33.56C54.4385 33.976 54.3105 34.328 54.0545 34.616C53.7985 34.872 53.4625 35 53.0465 35C52.5985 35 52.2145 34.872 51.8945 34.616C51.5745 34.328 51.4145 33.976 51.4145 33.56V2.84C51.4145 2.424 51.5425 2.088 51.7985 1.832C52.0865 1.54399 52.4385 1.39999 52.8545 1.39999H65.8145C67.6385 1.39999 69.2705 1.8 70.7105 2.6C72.1505 3.368 73.2705 4.44 74.0705 5.816C74.9025 7.192 75.3185 8.744 75.3185 10.472C75.3185 12.52 74.7745 14.328 73.6865 15.896C72.6305 17.432 71.2385 18.488 69.5105 19.064C70.9185 19.608 72.0705 20.536 72.9665 21.848C73.8625 23.128 74.3265 24.696 74.3585 26.552C74.3905 28.536 74.5185 29.928 74.7425 30.728C74.9985 31.528 75.3985 32.088 75.9425 32.408ZM65.9585 18.008C67.0785 17.912 68.1185 17.544 69.0785 16.904C70.0385 16.264 70.8065 15.4 71.3825 14.312C71.9585 13.224 72.2465 11.976 72.2465 10.568C72.2465 8.744 71.6225 7.24 70.3745 6.05599C69.1585 4.84 67.5585 4.232 65.5745 4.232H54.4385V18.008H65.9585Z"/>
<path d="M105.716 1.39999C106.132 1.39999 106.468 1.528 106.724 1.784C107.012 2.04 107.156 2.376 107.156 2.792C107.156 3.208 107.012 3.54399 106.724 3.8C106.468 4.024 106.132 4.136 105.716 4.136H95.7796V33.56C95.7796 33.976 95.6356 34.328 95.3476 34.616C95.0596 34.872 94.7076 35 94.2916 35C93.8436 35 93.4756 34.872 93.1876 34.616C92.9316 34.328 92.8036 33.976 92.8036 33.56V4.136H82.8676C82.4516 4.136 82.0996 4.008 81.8116 3.752C81.5556 3.496 81.4276 3.16 81.4276 2.74399C81.4276 2.36 81.5556 2.04 81.8116 1.784C82.0996 1.528 82.4516 1.39999 82.8676 1.39999H105.716Z"/>
<path d="M138.476 1.39999C138.892 1.39999 139.228 1.54399 139.484 1.832C139.772 2.088 139.916 2.424 139.916 2.84V22.712C139.916 25.048 139.356 27.192 138.236 29.144C137.116 31.096 135.596 32.632 133.676 33.752C131.756 34.872 129.644 35.432 127.34 35.432C125.004 35.432 122.876 34.872 120.956 33.752C119.036 32.632 117.516 31.096 116.396 29.144C115.276 27.192 114.716 25.048 114.716 22.712V2.84C114.716 2.424 114.844 2.088 115.1 1.832C115.388 1.54399 115.772 1.39999 116.252 1.39999C116.636 1.39999 116.972 1.54399 117.26 1.832C117.548 2.088 117.692 2.424 117.692 2.84V22.712C117.692 24.504 118.124 26.152 118.988 27.656C119.852 29.16 121.02 30.36 122.492 31.256C123.996 32.12 125.612 32.552 127.34 32.552C129.1 32.552 130.716 32.12 132.188 31.256C133.692 30.36 134.876 29.16 135.74 27.656C136.636 26.152 137.084 24.504 137.084 22.712V2.84C137.084 2.424 137.212 2.088 137.468 1.832C137.724 1.54399 138.06 1.39999 138.476 1.39999Z"/>
<path d="M174.962 33.08C175.026 33.336 175.058 33.528 175.058 33.656C175.058 34.072 174.914 34.408 174.626 34.664C174.338 34.92 174.002 35.048 173.618 35.048C173.298 35.048 173.01 34.968 172.754 34.808C172.53 34.616 172.354 34.376 172.226 34.088L168.626 25.304H153.026L149.474 34.088C149.218 34.728 148.786 35.048 148.178 35.048C147.73 35.048 147.394 34.936 147.17 34.712C146.946 34.488 146.818 34.184 146.786 33.8V33.656C146.786 33.464 146.802 33.32 146.834 33.224L159.506 2.216C159.762 1.576 160.242 1.256 160.946 1.256C161.266 1.256 161.538 1.352 161.762 1.544C162.018 1.704 162.21 1.928 162.338 2.216L174.962 33.08ZM167.474 22.472L160.754 6.05599L154.13 22.472H167.474Z"/>
<path d="M201.001 32.168C201.417 32.168 201.753 32.296 202.009 32.552C202.297 32.808 202.441 33.144 202.441 33.56C202.441 33.976 202.297 34.328 202.009 34.616C201.753 34.872 201.417 35 201.001 35H183.865C183.449 35 183.097 34.872 182.809 34.616C182.553 34.328 182.424 33.976 182.424 33.56V2.84C182.424 2.424 182.569 2.088 182.857 1.832C183.145 1.54399 183.513 1.39999 183.961 1.39999C184.377 1.39999 184.729 1.54399 185.017 1.832C185.305 2.088 185.449 2.424 185.449 2.84V32.168H201.001Z"/>
<path d="M6.97381 78.512C6.94181 78.928 6.78181 79.28 6.49381 79.568C6.20581 79.856 5.85381 80 5.43781 80C4.98981 80 4.62181 79.872 4.33381 79.616C4.07781 79.328 3.94981 78.96 3.94981 78.512V47.888C3.94981 47.44 4.09381 47.088 4.38181 46.832C4.66981 46.544 5.03781 46.4 5.48581 46.4C5.90181 46.4 6.25381 46.544 6.54181 46.832C6.82981 47.12 6.97381 47.472 6.97381 47.888V78.512Z"/>
<path d="M41.9178 77.408C42.3978 77.728 42.6378 78.128 42.6378 78.608C42.6378 78.768 42.5738 78.976 42.4458 79.232C42.3178 79.456 42.1418 79.632 41.9178 79.76C41.6938 79.888 41.4538 79.952 41.1978 79.952C40.8778 79.952 40.6058 79.888 40.3818 79.76C39.4858 79.248 38.7658 78.416 38.2218 77.264C37.6778 76.112 37.4058 74.272 37.4058 71.744C37.4058 69.504 36.7818 67.936 35.5338 67.04C34.2858 66.112 32.7978 65.648 31.0698 65.648H20.4138V78.56C20.4138 78.976 20.2858 79.328 20.0298 79.616C19.7738 79.872 19.4378 80 19.0218 80C18.5738 80 18.1898 79.872 17.8698 79.616C17.5498 79.328 17.3898 78.976 17.3898 78.56V47.84C17.3898 47.424 17.5178 47.088 17.7738 46.832C18.0618 46.544 18.4138 46.4 18.8298 46.4H31.7898C33.6138 46.4 35.2458 46.8 36.6858 47.6C38.1258 48.368 39.2458 49.44 40.0458 50.816C40.8778 52.192 41.2938 53.744 41.2938 55.472C41.2938 57.52 40.7498 59.328 39.6618 60.896C38.6058 62.432 37.2138 63.488 35.4858 64.064C36.8938 64.608 38.0458 65.536 38.9418 66.848C39.8378 68.128 40.3018 69.696 40.3338 71.552C40.3658 73.536 40.4938 74.928 40.7178 75.728C40.9738 76.528 41.3738 77.088 41.9178 77.408ZM31.9338 63.008C33.0538 62.912 34.0938 62.544 35.0538 61.904C36.0138 61.264 36.7818 60.4 37.3578 59.312C37.9338 58.224 38.2218 56.976 38.2218 55.568C38.2218 53.744 37.5978 52.24 36.3498 51.056C35.1338 49.84 33.5338 49.232 31.5498 49.232H20.4138V63.008H31.9338Z"/>
<path d="M70.0421 77.168C70.4581 77.168 70.7941 77.312 71.0501 77.6C71.3381 77.888 71.4821 78.224 71.4821 78.608C71.4821 79.024 71.3381 79.36 71.0501 79.616C70.7941 79.872 70.4581 80 70.0421 80H52.4261C52.0101 80 51.6581 79.872 51.3701 79.616C51.1141 79.328 50.9861 78.976 50.9861 78.56V47.84C50.9861 47.424 51.1141 47.088 51.3701 46.832C51.6581 46.544 52.0101 46.4 52.4261 46.4H70.0421C70.4581 46.4 70.7941 46.544 71.0501 46.832C71.3381 47.088 71.4821 47.424 71.4821 47.84C71.4821 48.256 71.3381 48.592 71.0501 48.848C70.7941 49.104 70.4581 49.232 70.0421 49.232H54.0101V61.28H67.8821C68.2981 61.28 68.6341 61.424 68.8901 61.712C69.1781 61.968 69.3221 62.304 69.3221 62.72C69.3221 63.136 69.1781 63.472 68.8901 63.728C68.6341 63.984 68.2981 64.112 67.8821 64.112H54.0101V77.168H70.0421Z"/>
<path d="M98.2833 77.168C98.6993 77.168 99.0353 77.296 99.2913 77.552C99.5793 77.808 99.7233 78.144 99.7233 78.56C99.7233 78.976 99.5793 79.328 99.2913 79.616C99.0353 79.872 98.6993 80 98.2833 80H81.1473C80.7313 80 80.3793 79.872 80.0913 79.616C79.8353 79.328 79.7073 78.976 79.7073 78.56V47.84C79.7073 47.424 79.8513 47.088 80.1393 46.832C80.4273 46.544 80.7953 46.4 81.2433 46.4C81.6593 46.4 82.0113 46.544 82.2993 46.832C82.5873 47.088 82.7313 47.424 82.7313 47.84V77.168H98.2833Z"/>
<path d="M131.75 78.08C131.814 78.336 131.846 78.528 131.846 78.656C131.846 79.072 131.702 79.408 131.414 79.664C131.126 79.92 130.79 80.048 130.406 80.048C130.086 80.048 129.798 79.968 129.542 79.808C129.318 79.616 129.142 79.376 129.014 79.088L125.414 70.304H109.814L106.262 79.088C106.006 79.728 105.574 80.048 104.966 80.048C104.518 80.048 104.182 79.936 103.958 79.712C103.734 79.488 103.606 79.184 103.574 78.8V78.656C103.574 78.464 103.59 78.32 103.622 78.224L116.294 47.216C116.55 46.576 117.03 46.256 117.734 46.256C118.054 46.256 118.326 46.352 118.55 46.544C118.806 46.704 118.998 46.928 119.126 47.216L131.75 78.08ZM124.262 67.472L117.542 51.056L110.918 67.472H124.262Z"/>
<path d="M163.788 46.4C164.204 46.4 164.524 46.528 164.748 46.784C165.004 47.04 165.132 47.36 165.132 47.744V78.464C165.132 78.944 164.988 79.328 164.7 79.616C164.412 79.872 164.06 80 163.644 80C163.42 80 163.196 79.952 162.972 79.856C162.78 79.76 162.62 79.648 162.492 79.52L141.9 51.776V78.704C141.9 79.056 141.756 79.36 141.468 79.616C141.212 79.872 140.908 80 140.556 80C140.172 80 139.852 79.872 139.596 79.616C139.34 79.36 139.212 79.056 139.212 78.704V47.84C139.212 47.392 139.34 47.04 139.596 46.784C139.884 46.528 140.22 46.4 140.604 46.4C141.116 46.4 141.5 46.576 141.756 46.928L162.444 74.816V47.744C162.444 47.36 162.572 47.04 162.828 46.784C163.084 46.528 163.404 46.4 163.788 46.4Z"/>
<path d="M189.254 46.4C192.326 46.4 194.902 47.168 196.982 48.704C199.094 50.208 200.662 52.24 201.686 54.8C202.742 57.328 203.27 60.128 203.27 63.2C203.27 66.368 202.742 69.216 201.686 71.744C200.662 74.272 199.094 76.288 196.982 77.792C194.902 79.264 192.326 80 189.254 80H177.014C176.598 80 176.246 79.872 175.958 79.616C175.702 79.328 175.574 78.976 175.574 78.56V47.84C175.574 47.424 175.702 47.088 175.958 46.832C176.246 46.544 176.598 46.4 177.014 46.4H189.254ZM188.774 77.168C192.614 77.168 195.478 75.888 197.366 73.328C199.254 70.736 200.198 67.36 200.198 63.2C200.198 60.608 199.798 58.272 198.998 56.192C198.198 54.08 196.934 52.4 195.206 51.152C193.51 49.872 191.366 49.232 188.774 49.232H178.598V77.168H188.774Z"/>
</mask>
<path d="M28.9006 1.352C29.3166 1.352 29.6686 1.496 29.9566 1.784C30.2446 2.04 30.3886 2.344 30.3886 2.696C30.3886 2.92 30.3406 3.16 30.2446 3.41599L17.4286 34.04C17.3006 34.328 17.1086 34.568 16.8526 34.76C16.5966 34.92 16.3246 35 16.0366 35C15.7486 35 15.4766 34.92 15.2206 34.76C14.9966 34.6 14.8206 34.376 14.6926 34.088L1.92462 3.512C1.82862 3.31999 1.78062 3.06399 1.78062 2.74399C1.78062 2.32799 1.92462 1.99199 2.21263 1.736C2.50063 1.48 2.82063 1.352 3.17263 1.352C3.84462 1.352 4.32462 1.704 4.61262 2.408L16.1806 30.056L27.5566 2.31199C27.7166 2.02399 27.9086 1.79999 28.1326 1.63999C28.3886 1.448 28.6446 1.352 28.9006 1.352Z" stroke="#047B17" stroke-width="2" mask="url(#path-1-outside-1)"/>
<path d="M40.9985 33.512C40.9665 33.928 40.8065 34.28 40.5185 34.568C40.2305 34.856 39.8785 35 39.4625 35C39.0145 35 38.6465 34.872 38.3585 34.616C38.1025 34.328 37.9745 33.96 37.9745 33.512V2.888C37.9745 2.44 38.1185 2.088 38.4065 1.832C38.6945 1.54399 39.0625 1.39999 39.5105 1.39999C39.9265 1.39999 40.2785 1.54399 40.5665 1.832C40.8545 2.12 40.9985 2.472 40.9985 2.888V33.512Z" stroke="#047B17" stroke-width="2" mask="url(#path-1-outside-1)"/>
<path d="M75.9425 32.408C76.4225 32.728 76.6625 33.128 76.6625 33.608C76.6625 33.768 76.5985 33.976 76.4705 34.232C76.3425 34.456 76.1665 34.632 75.9425 34.76C75.7185 34.888 75.4785 34.952 75.2225 34.952C74.9025 34.952 74.6305 34.888 74.4065 34.76C73.5105 34.248 72.7905 33.416 72.2465 32.264C71.7025 31.112 71.4305 29.272 71.4305 26.744C71.4305 24.504 70.8065 22.936 69.5585 22.04C68.3105 21.112 66.8225 20.648 65.0945 20.648H54.4385V33.56C54.4385 33.976 54.3105 34.328 54.0545 34.616C53.7985 34.872 53.4625 35 53.0465 35C52.5985 35 52.2145 34.872 51.8945 34.616C51.5745 34.328 51.4145 33.976 51.4145 33.56V2.84C51.4145 2.424 51.5425 2.088 51.7985 1.832C52.0865 1.54399 52.4385 1.39999 52.8545 1.39999H65.8145C67.6385 1.39999 69.2705 1.8 70.7105 2.6C72.1505 3.368 73.2705 4.44 74.0705 5.816C74.9025 7.192 75.3185 8.744 75.3185 10.472C75.3185 12.52 74.7745 14.328 73.6865 15.896C72.6305 17.432 71.2385 18.488 69.5105 19.064C70.9185 19.608 72.0705 20.536 72.9665 21.848C73.8625 23.128 74.3265 24.696 74.3585 26.552C74.3905 28.536 74.5185 29.928 74.7425 30.728C74.9985 31.528 75.3985 32.088 75.9425 32.408ZM65.9585 18.008C67.0785 17.912 68.1185 17.544 69.0785 16.904C70.0385 16.264 70.8065 15.4 71.3825 14.312C71.9585 13.224 72.2465 11.976 72.2465 10.568C72.2465 8.744 71.6225 7.24 70.3745 6.05599C69.1585 4.84 67.5585 4.232 65.5745 4.232H54.4385V18.008H65.9585Z" stroke="#047B17" stroke-width="2" mask="url(#path-1-outside-1)"/>
<path d="M105.716 1.39999C106.132 1.39999 106.468 1.528 106.724 1.784C107.012 2.04 107.156 2.376 107.156 2.792C107.156 3.208 107.012 3.54399 106.724 3.8C106.468 4.024 106.132 4.136 105.716 4.136H95.7796V33.56C95.7796 33.976 95.6356 34.328 95.3476 34.616C95.0596 34.872 94.7076 35 94.2916 35C93.8436 35 93.4756 34.872 93.1876 34.616C92.9316 34.328 92.8036 33.976 92.8036 33.56V4.136H82.8676C82.4516 4.136 82.0996 4.008 81.8116 3.752C81.5556 3.496 81.4276 3.16 81.4276 2.74399C81.4276 2.36 81.5556 2.04 81.8116 1.784C82.0996 1.528 82.4516 1.39999 82.8676 1.39999H105.716Z" stroke="#047B17" stroke-width="2" mask="url(#path-1-outside-1)"/>
<path d="M138.476 1.39999C138.892 1.39999 139.228 1.54399 139.484 1.832C139.772 2.088 139.916 2.424 139.916 2.84V22.712C139.916 25.048 139.356 27.192 138.236 29.144C137.116 31.096 135.596 32.632 133.676 33.752C131.756 34.872 129.644 35.432 127.34 35.432C125.004 35.432 122.876 34.872 120.956 33.752C119.036 32.632 117.516 31.096 116.396 29.144C115.276 27.192 114.716 25.048 114.716 22.712V2.84C114.716 2.424 114.844 2.088 115.1 1.832C115.388 1.54399 115.772 1.39999 116.252 1.39999C116.636 1.39999 116.972 1.54399 117.26 1.832C117.548 2.088 117.692 2.424 117.692 2.84V22.712C117.692 24.504 118.124 26.152 118.988 27.656C119.852 29.16 121.02 30.36 122.492 31.256C123.996 32.12 125.612 32.552 127.34 32.552C129.1 32.552 130.716 32.12 132.188 31.256C133.692 30.36 134.876 29.16 135.74 27.656C136.636 26.152 137.084 24.504 137.084 22.712V2.84C137.084 2.424 137.212 2.088 137.468 1.832C137.724 1.54399 138.06 1.39999 138.476 1.39999Z" stroke="#047B17" stroke-width="2" mask="url(#path-1-outside-1)"/>
<path d="M174.962 33.08C175.026 33.336 175.058 33.528 175.058 33.656C175.058 34.072 174.914 34.408 174.626 34.664C174.338 34.92 174.002 35.048 173.618 35.048C173.298 35.048 173.01 34.968 172.754 34.808C172.53 34.616 172.354 34.376 172.226 34.088L168.626 25.304H153.026L149.474 34.088C149.218 34.728 148.786 35.048 148.178 35.048C147.73 35.048 147.394 34.936 147.17 34.712C146.946 34.488 146.818 34.184 146.786 33.8V33.656C146.786 33.464 146.802 33.32 146.834 33.224L159.506 2.216C159.762 1.576 160.242 1.256 160.946 1.256C161.266 1.256 161.538 1.352 161.762 1.544C162.018 1.704 162.21 1.928 162.338 2.216L174.962 33.08ZM167.474 22.472L160.754 6.05599L154.13 22.472H167.474Z" stroke="#047B17" stroke-width="2" mask="url(#path-1-outside-1)"/>
<path d="M201.001 32.168C201.417 32.168 201.753 32.296 202.009 32.552C202.297 32.808 202.441 33.144 202.441 33.56C202.441 33.976 202.297 34.328 202.009 34.616C201.753 34.872 201.417 35 201.001 35H183.865C183.449 35 183.097 34.872 182.809 34.616C182.553 34.328 182.424 33.976 182.424 33.56V2.84C182.424 2.424 182.569 2.088 182.857 1.832C183.145 1.54399 183.513 1.39999 183.961 1.39999C184.377 1.39999 184.729 1.54399 185.017 1.832C185.305 2.088 185.449 2.424 185.449 2.84V32.168H201.001Z" stroke="#047B17" stroke-width="2" mask="url(#path-1-outside-1)"/>
<path d="M6.97381 78.512C6.94181 78.928 6.78181 79.28 6.49381 79.568C6.20581 79.856 5.85381 80 5.43781 80C4.98981 80 4.62181 79.872 4.33381 79.616C4.07781 79.328 3.94981 78.96 3.94981 78.512V47.888C3.94981 47.44 4.09381 47.088 4.38181 46.832C4.66981 46.544 5.03781 46.4 5.48581 46.4C5.90181 46.4 6.25381 46.544 6.54181 46.832C6.82981 47.12 6.97381 47.472 6.97381 47.888V78.512Z" stroke="#047B17" stroke-width="2" mask="url(#path-1-outside-1)"/>
<path d="M41.9178 77.408C42.3978 77.728 42.6378 78.128 42.6378 78.608C42.6378 78.768 42.5738 78.976 42.4458 79.232C42.3178 79.456 42.1418 79.632 41.9178 79.76C41.6938 79.888 41.4538 79.952 41.1978 79.952C40.8778 79.952 40.6058 79.888 40.3818 79.76C39.4858 79.248 38.7658 78.416 38.2218 77.264C37.6778 76.112 37.4058 74.272 37.4058 71.744C37.4058 69.504 36.7818 67.936 35.5338 67.04C34.2858 66.112 32.7978 65.648 31.0698 65.648H20.4138V78.56C20.4138 78.976 20.2858 79.328 20.0298 79.616C19.7738 79.872 19.4378 80 19.0218 80C18.5738 80 18.1898 79.872 17.8698 79.616C17.5498 79.328 17.3898 78.976 17.3898 78.56V47.84C17.3898 47.424 17.5178 47.088 17.7738 46.832C18.0618 46.544 18.4138 46.4 18.8298 46.4H31.7898C33.6138 46.4 35.2458 46.8 36.6858 47.6C38.1258 48.368 39.2458 49.44 40.0458 50.816C40.8778 52.192 41.2938 53.744 41.2938 55.472C41.2938 57.52 40.7498 59.328 39.6618 60.896C38.6058 62.432 37.2138 63.488 35.4858 64.064C36.8938 64.608 38.0458 65.536 38.9418 66.848C39.8378 68.128 40.3018 69.696 40.3338 71.552C40.3658 73.536 40.4938 74.928 40.7178 75.728C40.9738 76.528 41.3738 77.088 41.9178 77.408ZM31.9338 63.008C33.0538 62.912 34.0938 62.544 35.0538 61.904C36.0138 61.264 36.7818 60.4 37.3578 59.312C37.9338 58.224 38.2218 56.976 38.2218 55.568C38.2218 53.744 37.5978 52.24 36.3498 51.056C35.1338 49.84 33.5338 49.232 31.5498 49.232H20.4138V63.008H31.9338Z" stroke="#047B17" stroke-width="2" mask="url(#path-1-outside-1)"/>
<path d="M70.0421 77.168C70.4581 77.168 70.7941 77.312 71.0501 77.6C71.3381 77.888 71.4821 78.224 71.4821 78.608C71.4821 79.024 71.3381 79.36 71.0501 79.616C70.7941 79.872 70.4581 80 70.0421 80H52.4261C52.0101 80 51.6581 79.872 51.3701 79.616C51.1141 79.328 50.9861 78.976 50.9861 78.56V47.84C50.9861 47.424 51.1141 47.088 51.3701 46.832C51.6581 46.544 52.0101 46.4 52.4261 46.4H70.0421C70.4581 46.4 70.7941 46.544 71.0501 46.832C71.3381 47.088 71.4821 47.424 71.4821 47.84C71.4821 48.256 71.3381 48.592 71.0501 48.848C70.7941 49.104 70.4581 49.232 70.0421 49.232H54.0101V61.28H67.8821C68.2981 61.28 68.6341 61.424 68.8901 61.712C69.1781 61.968 69.3221 62.304 69.3221 62.72C69.3221 63.136 69.1781 63.472 68.8901 63.728C68.6341 63.984 68.2981 64.112 67.8821 64.112H54.0101V77.168H70.0421Z" stroke="#047B17" stroke-width="2" mask="url(#path-1-outside-1)"/>
<path d="M98.2833 77.168C98.6993 77.168 99.0353 77.296 99.2913 77.552C99.5793 77.808 99.7233 78.144 99.7233 78.56C99.7233 78.976 99.5793 79.328 99.2913 79.616C99.0353 79.872 98.6993 80 98.2833 80H81.1473C80.7313 80 80.3793 79.872 80.0913 79.616C79.8353 79.328 79.7073 78.976 79.7073 78.56V47.84C79.7073 47.424 79.8513 47.088 80.1393 46.832C80.4273 46.544 80.7953 46.4 81.2433 46.4C81.6593 46.4 82.0113 46.544 82.2993 46.832C82.5873 47.088 82.7313 47.424 82.7313 47.84V77.168H98.2833Z" stroke="#047B17" stroke-width="2" mask="url(#path-1-outside-1)"/>
<path d="M131.75 78.08C131.814 78.336 131.846 78.528 131.846 78.656C131.846 79.072 131.702 79.408 131.414 79.664C131.126 79.92 130.79 80.048 130.406 80.048C130.086 80.048 129.798 79.968 129.542 79.808C129.318 79.616 129.142 79.376 129.014 79.088L125.414 70.304H109.814L106.262 79.088C106.006 79.728 105.574 80.048 104.966 80.048C104.518 80.048 104.182 79.936 103.958 79.712C103.734 79.488 103.606 79.184 103.574 78.8V78.656C103.574 78.464 103.59 78.32 103.622 78.224L116.294 47.216C116.55 46.576 117.03 46.256 117.734 46.256C118.054 46.256 118.326 46.352 118.55 46.544C118.806 46.704 118.998 46.928 119.126 47.216L131.75 78.08ZM124.262 67.472L117.542 51.056L110.918 67.472H124.262Z" stroke="#047B17" stroke-width="2" mask="url(#path-1-outside-1)"/>
<path d="M163.788 46.4C164.204 46.4 164.524 46.528 164.748 46.784C165.004 47.04 165.132 47.36 165.132 47.744V78.464C165.132 78.944 164.988 79.328 164.7 79.616C164.412 79.872 164.06 80 163.644 80C163.42 80 163.196 79.952 162.972 79.856C162.78 79.76 162.62 79.648 162.492 79.52L141.9 51.776V78.704C141.9 79.056 141.756 79.36 141.468 79.616C141.212 79.872 140.908 80 140.556 80C140.172 80 139.852 79.872 139.596 79.616C139.34 79.36 139.212 79.056 139.212 78.704V47.84C139.212 47.392 139.34 47.04 139.596 46.784C139.884 46.528 140.22 46.4 140.604 46.4C141.116 46.4 141.5 46.576 141.756 46.928L162.444 74.816V47.744C162.444 47.36 162.572 47.04 162.828 46.784C163.084 46.528 163.404 46.4 163.788 46.4Z" stroke="#047B17" stroke-width="2" mask="url(#path-1-outside-1)"/>
<path d="M189.254 46.4C192.326 46.4 194.902 47.168 196.982 48.704C199.094 50.208 200.662 52.24 201.686 54.8C202.742 57.328 203.27 60.128 203.27 63.2C203.27 66.368 202.742 69.216 201.686 71.744C200.662 74.272 199.094 76.288 196.982 77.792C194.902 79.264 192.326 80 189.254 80H177.014C176.598 80 176.246 79.872 175.958 79.616C175.702 79.328 175.574 78.976 175.574 78.56V47.84C175.574 47.424 175.702 47.088 175.958 46.832C176.246 46.544 176.598 46.4 177.014 46.4H189.254ZM188.774 77.168C192.614 77.168 195.478 75.888 197.366 73.328C199.254 70.736 200.198 67.36 200.198 63.2C200.198 60.608 199.798 58.272 198.998 56.192C198.198 54.08 196.934 52.4 195.206 51.152C193.51 49.872 191.366 49.232 188.774 49.232H178.598V77.168H188.774Z" stroke="#047B17" stroke-width="2" mask="url(#path-1-outside-1)"/>
</svg>
