<?xml version="1.0" encoding="iso-8859-1"?>
<!-- Generator: Adobe Illustrator 21.0.0, SVG Export Plug-In . SVG Version: 6.00 Build 0)  -->
<svg xmlns="http://www.w3.org/2000/svg" xmlns:xlink="http://www.w3.org/1999/xlink" version="1.1" id="Capa_1" x="0px" y="0px" viewBox="0 0 512 512" style="enable-background:new 0 0 512 512;" xml:space="preserve" width="512" height="512">
<g>
	<g>
		<path d="M170.7,263.167c7.538,6.731,14.455,14.401,20.562,22.799c1.467,2.019,3.754,3.091,6.072,3.091    c1.529,0,3.072-0.467,4.404-1.435c3.351-2.436,4.092-7.127,1.656-10.476c-6.794-9.345-14.509-17.88-22.931-25.371    c-0.141-0.125-0.286-0.244-0.436-0.358c-17.814-13.59-32.604-31.936-42.788-53.093c-14.663-30.035-15.959-65.459-3.556-97.185    c11.996-30.688,35.881-54.918,65.53-66.476c0.042-0.016,0.084-0.032,0.125-0.05c39.929-16.394,87.239-7.107,117.731,23.109    c2.941,2.915,7.69,2.893,10.607-0.048c2.916-2.942,2.895-7.69-0.048-10.606c-16.883-16.732-38.354-28.147-62.09-33.01    c-24.255-4.971-49.094-2.67-71.835,6.654c-33.516,13.087-60.481,40.406-73.99,74.966c-13.925,35.621-12.45,75.433,4.029,109.189    C134.884,228.016,151.118,248.169,170.7,263.167z"/>
		<path d="M310.819,432.836c-14.967-23.667-17.956-51.63-8.198-76.716c0.002-0.006,0.004-0.013,0.007-0.019l0.012-0.029    c14.541-36.557,54.673-56.333,91.325-45.036l2.281-7.145l-2.175,7.179c17.476,5.603,32.15,20.47,38.294,38.799    c5.548,16.544,3.313,33.74-6.151,47.206l-0.036,0.052c-8.868,12.242-23.872,18.771-40.105,17.472    c-0.188-0.017-0.377-0.039-0.546-0.065c-11.449-1.846-22.656-11.82-25.514-22.708c-2.166-8.254,0.49-16.104,7.286-21.536    c4.867-3.888,6.49-1.979,7.461-0.839c0.807,0.952,0.972,1.476-0.922,6.154c-1.191,2.945-2.543,6.284-2.307,10.103    c0.519,8.416,7.991,13.84,15.166,15.482c0.41,0.094,0.828,0.152,1.248,0.177c5.389,0.299,18.831-0.25,27.396-11.967    c0.032-0.044,0.064-0.089,0.096-0.134c9.468-13.566,6.775-27.846,4.327-35.153c-4.738-14.127-16.378-26.028-29.655-30.321    c-0.037-0.012-0.073-0.022-0.11-0.034c-30.06-9.212-62.998,7.129-75.015,37.262c-8.176,21.079-5.601,44.653,7.064,64.679    c13.804,21.833,37.06,35.932,62.231,37.716c2.021,0.138,4.025,0.206,6.026,0.206c46.79-0.004,87.715-37.182,92.661-85.518    l0.016-0.133c3.486-28.335-5.177-56.396-24.393-79.014c-19.667-23.148-48.014-37.081-77.724-38.225    c-45.133-2.018-86.09,17.482-109.575,52.14L271.201,313c-11.851,16.642-20.243,51.6-25.256,72.488    c-1.189,4.955-2.217,9.235-2.968,11.877c-8.967,32.195-31.5,59.541-61.824,75.026c-16.79,8.576-35.49,13.109-54.074,13.11    c-13.493,0-26.627-2.33-39.035-6.925c-0.042-0.016-0.084-0.031-0.127-0.046c-54.44-19.052-85.103-78.4-68.359-132.275    c8.807-28.081,31.001-50.68,59.371-60.45c26.485-9.123,54.385-5.578,76.582,9.754c32.198,22.609,42.155,66.253,22.668,99.363h0    l-0.039,0.063c-9.484,15.707-27.321,26.552-46.549,28.305c-17.371,1.572-33.579-4.567-44.437-16.832    c-0.002-0.003-0.089-0.102-0.091-0.104c-9.958-11.578-12.849-27.678-7.734-43.069c3.596-10.819,16.23-19.854,28.173-20.14    c8.509-0.246,15.519,4.183,19.234,12.064c1.548,3.284,0.178,7.208-3.051,8.815c-3.258-0.485-8.745-7.524-15.772-7.575h-0.16    c-7.148,0-12.909,3.573-15.823,9.824c-4.556,9.773-1.033,24.064,5.116,31.279c0.036,0.042,0.072,0.084,0.109,0.125    c11.022,12.366,25.549,13.039,33.232,12.339c14.829-1.351,29.089-9.927,36.329-21.847c0.02-0.033,0.04-0.066,0.06-0.1    c15.899-27.111,7.624-62.934-18.898-81.597c-18.633-12.848-42.19-15.786-64.63-8.06c-24.393,8.4-43.457,27.767-51.002,51.824    c-14.654,47.153,12.336,99.079,60.193,115.761l0.1,0.036c26.401,9.812,56.5,7.8,82.581-5.516    c27.017-13.798,47.091-38.15,55.064-66.772c7.364-25.888,3.658-58.03-10.169-88.186c-1.726-3.765-6.18-5.419-9.944-3.691    c-3.765,1.727-5.418,6.178-3.691,9.943c12.361,26.957,15.778,55.325,9.365,77.869c-6.861,24.633-24.155,45.583-47.446,57.477    c-22.349,11.413-48.057,13.17-70.558,4.807l-0.39-0.141c-40.281-14.042-63.06-57.617-50.784-97.118    c6.12-19.512,21.659-35.255,41.567-42.111c17.886-6.158,36.56-3.891,51.173,6.186c20.114,14.154,26.504,41.223,14.563,61.649    c-4.792,7.847-14.766,13.731-24.84,14.649c-4.857,0.436-13.973,0.075-20.613-7.314c-3.057-3.651-4.569-11.548-2.888-15.154    c0.264-0.565,0.48-1.029,1.643-1.138c0.707,0.389,1.923,1.243,2.774,1.841c4.391,3.084,11.742,8.247,20.027,4.333    c10.79-5.099,15.426-18.035,10.335-28.833c-6.272-13.304-18.689-21-33.171-20.664c-18.352,0.44-36.425,13.511-42.039,30.406    c-6.794,20.442-2.833,41.967,10.584,57.566l0.215,0.248c14.085,15.91,34.884,23.884,57.058,21.859    c23.891-2.177,46.127-15.776,58.03-35.488c0.008-0.013,0.06-0.102,0.067-0.114c0.02-0.031,0.039-0.063,0.058-0.096    c23.423-39.798,11.574-92.177-27.009-119.269c-0.02-0.014-0.083-0.059-0.104-0.072c-26.12-18.042-58.906-22.257-89.95-11.564    c-32.854,11.314-58.573,37.536-68.805,70.162c-19.114,61.499,15.721,129.17,77.66,150.882c14.062,5.198,28.924,7.834,44.179,7.834    c20.946-0.001,42.004-5.101,60.897-14.751c34.049-17.388,59.362-48.137,69.44-84.32c0.825-2.901,1.836-7.111,3.115-12.44    c4.447-18.528,12.726-53.016,22.851-67.235c0.111-0.153,0.22-0.311,0.326-0.467c20.539-30.311,56.637-47.326,96.534-45.568    c25.571,0.985,49.96,12.995,66.916,32.951c16.47,19.383,23.905,43.345,20.936,67.474l-0.049,0.435    c-4.346,42.447-41.47,74.703-82.725,71.873c-20.414-1.447-39.327-12.949-50.594-30.769c-10.096-15.965-12.195-34.641-5.782-51.173    c9.113-22.852,33.97-35.326,56.604-28.428c8.745,2.851,16.776,11.202,19.995,20.798c1.548,4.618,3.293,13.571-2.357,21.732    c-3.816,5.16-9.923,5.905-13.673,5.808c-1.219-0.391-2.607-1.163-2.994-1.691c0.102-0.719,0.772-2.378,1.227-3.498    c1.883-4.653,5.387-13.313-1.546-21.485c-7.296-8.598-18.387-9.061-28.262-1.176c-11.469,9.166-16.117,23.021-12.431,37.063    c4.39,16.724,20.218,30.9,37.653,33.71c18.388,2.929,41.864-5.053,55.198-23.459l0.15-0.212    c12.215-17.382,15.161-39.461,8.082-60.573c-7.633-22.768-26.002-41.28-47.897-48.301l-0.272-0.086    c-44.095-13.592-92.266,10.022-109.695,53.758c-0.034,0.084-0.067,0.169-0.1,0.254c-11.48,29.559-8.013,62.408,9.517,90.129    c0.812,1.283,1.651,2.553,2.496,3.773c2.357,3.408,7.029,4.257,10.435,1.901c3.407-2.356,4.258-7.028,1.901-10.434    C312.245,435.041,311.521,433.945,310.819,432.836z"/>
		<path d="M480.142,280.603c-24.782-29.168-60.558-46.728-98.111-48.175c-20.465-0.917-40.367,1.828-59.155,8.135    c-22.071,6.49-45.957,12.513-73.832,8.974c-0.197-0.026-0.394-0.049-0.55-0.063c-36.389-3.759-68.457-27.49-85.799-63.517    c-11.217-22.978-12.187-50.13-2.663-74.494c9.232-23.617,26.489-41.108,49.951-50.601c39.444-16.256,85.402,1.198,102.44,38.899    c8.372,18.652,7.202,40.74-3.13,59.086c-9.284,16.486-24.754,27.191-42.372,29.364c-24.447,2.789-47.188-13.214-51.815-36.433    c-1.624-9.042,1.925-20.059,8.84-27.433c3.335-3.555,10.402-9.341,20.285-8.229c5.995,0.873,9.493,5.41,11.283,8.727    c-2.982-0.114-5.98,0.41-8.832,1.555c-5.372,2.155-9.58,6.275-11.85,11.598c-4.687,10.98,0.426,23.734,11.4,28.43    c13.506,5.776,27.908,3.309,38.53-6.598c13.099-12.223,18.131-34.975,11.222-50.709c-8.434-19.273-24.541-32.266-44.19-35.648    c-21.303-3.667-43.516,4.267-59.416,21.222c-16.409,17.497-24.006,42.431-19.825,65.075l0.045,0.235    c8.172,41.633,45.532,71.848,88.837,71.847h0.009c34.81,0,67.598-19.822,85.568-51.731c17.054-30.284,18.882-66.973,4.883-98.161    c-1.245-2.756-2.614-5.494-4.068-8.139c-1.995-3.63-6.558-4.952-10.186-2.959c-3.63,1.996-4.954,6.556-2.959,10.185    c1.267,2.304,2.459,4.688,3.535,7.072c12.051,26.846,10.452,58.488-4.275,84.643c-15.316,27.196-43.096,44.091-72.499,44.091    c-0.004,0-0.003,0-0.008,0c-36.15,0-67.323-25.123-74.132-59.809c-3.332-18.044,2.806-38.002,16.016-52.088    c12.441-13.265,29.612-19.505,45.931-16.7c14.805,2.547,26.521,12.093,32.995,26.887c3.9,8.88,1.428,25.187-7.717,33.719    c-6.237,5.818-14.403,7.192-22.396,3.776c-3.376-1.445-4.947-5.371-3.503-8.754c0.698-1.637,1.991-2.902,3.64-3.564    c1.646-0.66,3.448-0.641,4.994,0.02c0.162,0.071,0.314,0.133,0.462,0.191c2.674,1.047,5.716,0.477,7.828-1.474    c13.867-12.81-0.703-35.207-19.329-37.807c-0.057-0.008-0.113-0.016-0.17-0.022c-16.465-1.907-27.773,7.233-33.049,12.858    c-10.179,10.853-15.143,26.726-12.647,40.437c0.007,0.037,0.014,0.075,0.021,0.112c6.107,30.85,36.072,52.137,68.308,48.473    c22.465-2.769,42.029-16.218,53.676-36.899c12.658-22.476,14.058-49.611,3.736-72.606c-20.34-45.007-74.995-65.918-121.789-46.624    c-26.946,10.902-47.633,31.865-58.251,59.026c-11.047,28.258-9.897,59.799,3.136,86.497c19.601,40.72,56.145,67.596,97.756,71.894    c0.014,0.002,0.141,0.017,0.155,0.019c30.854,3.916,56.508-2.546,80.139-9.5c0.093-0.027,0.185-0.057,0.276-0.088    c17.067-5.746,35.188-8.239,53.885-7.41c33.411,1.288,65.231,16.924,87.301,42.901c21.312,25.082,31.329,57.577,27.483,89.15    l-0.015,0.135c-5.655,54.583-52.184,97.343-105.928,97.347h-0.039c-2.274,0-4.585-0.079-6.853-0.235    c-18.059-1.281-35.35-7.912-50.004-19.176c-3.286-2.524-7.992-1.907-10.518,1.375c-2.524,3.284-1.908,7.993,1.375,10.517    c16.995,13.063,37.081,20.756,58.103,22.248c2.625,0.181,5.282,0.271,7.897,0.271h0.043    c61.303-0.004,114.369-48.64,120.838-110.734C515.421,345.517,504.141,308.85,480.142,280.603z"/>
	</g>
</g>















</svg>
