<?xml version="1.0" encoding="UTF-8" standalone="no"?>
<!DOCTYPE svg PUBLIC "-//W3C//DTD SVG 1.1//EN" "http://www.w3.org/Graphics/SVG/1.1/DTD/svg11.dtd">
<svg width="100%" height="100%" viewBox="0 0 512 512" version="1.1" xmlns="http://www.w3.org/2000/svg" xmlns:xlink="http://www.w3.org/1999/xlink" xml:space="preserve" xmlns:serif="http://www.serif.com/" style="fill-rule:evenodd;clip-rule:evenodd;stroke-linejoin:round;stroke-miterlimit:2;">
    <g id="triskel">
        <g>
            <path d="M170.7,263.167C178.238,269.898 185.155,277.568 191.262,285.966C192.729,287.985 195.016,289.057 197.334,289.057C198.863,289.057 200.406,288.59 201.738,287.622C205.089,285.186 205.83,280.495 203.394,277.146C196.6,267.801 188.885,259.266 180.463,251.775C180.322,251.65 180.177,251.531 180.027,251.417C162.213,237.827 147.423,219.481 137.239,198.324C122.576,168.289 121.28,132.865 133.683,101.139C145.679,70.451 169.564,46.221 199.213,34.663C199.255,34.647 199.297,34.631 199.338,34.613C239.267,18.219 286.577,27.506 317.069,57.722C320.01,60.637 324.759,60.615 327.676,57.674C330.592,54.732 330.571,49.984 327.628,47.068C310.745,30.336 289.274,18.921 265.538,14.058C241.283,9.087 216.444,11.388 193.703,20.712C160.187,33.799 133.222,61.118 119.713,95.678C105.788,131.299 107.263,171.111 123.742,204.867C134.884,228.016 151.118,248.169 170.7,263.167Z" style="fill:white;fill-rule:nonzero;"/>
            <path d="M310.819,432.836C295.852,409.169 292.863,381.206 302.621,356.12C302.623,356.114 302.625,356.107 302.628,356.101L302.64,356.072C317.181,319.515 357.313,299.739 393.965,311.036L396.246,303.891L394.071,311.07C411.547,316.673 426.221,331.54 432.365,349.869C437.913,366.413 435.678,383.609 426.214,397.075L426.178,397.127C417.31,409.369 402.306,415.898 386.073,414.599C385.885,414.582 385.696,414.56 385.527,414.534C374.078,412.688 362.871,402.714 360.013,391.826C357.847,383.572 360.503,375.722 367.299,370.29C372.166,366.402 373.789,368.311 374.76,369.451C375.567,370.403 375.732,370.927 373.838,375.605C372.647,378.55 371.295,381.889 371.531,385.708C372.05,394.124 379.522,399.548 386.697,401.19C387.107,401.284 387.525,401.342 387.945,401.367C393.334,401.666 406.776,401.117 415.341,389.4C415.373,389.356 415.405,389.311 415.437,389.266C424.905,375.7 422.212,361.42 419.764,354.113C415.026,339.986 403.386,328.085 390.109,323.792C390.072,323.78 390.036,323.77 389.999,323.758C359.939,314.546 327.001,330.887 314.984,361.02C306.808,382.099 309.383,405.673 322.048,425.699C335.852,447.532 359.108,461.631 384.279,463.415C386.3,463.553 388.304,463.621 390.305,463.621C437.095,463.617 478.02,426.439 482.966,378.103L482.982,377.97C486.468,349.635 477.805,321.574 458.589,298.956C438.922,275.808 410.575,261.875 380.865,260.731C335.732,258.713 294.775,278.213 271.29,312.871L271.201,313C259.35,329.642 250.958,364.6 245.945,385.488C244.756,390.443 243.728,394.723 242.977,397.365C234.01,429.56 211.477,456.906 181.153,472.391C164.363,480.967 145.663,485.5 127.079,485.501C113.586,485.501 100.452,483.171 88.044,478.576C88.002,478.56 87.96,478.545 87.917,478.53C33.477,459.478 2.814,400.13 19.558,346.255C28.365,318.174 50.559,295.575 78.929,285.805C105.414,276.682 133.314,280.227 155.511,295.559C187.709,318.168 197.666,361.812 178.179,394.922L178.14,394.985C168.656,410.692 150.819,421.537 131.591,423.29C114.22,424.862 98.012,418.723 87.154,406.458C87.152,406.455 87.065,406.356 87.063,406.354C77.105,394.776 74.214,378.676 79.329,363.285C82.925,352.466 95.559,343.431 107.502,343.145C116.011,342.899 123.021,347.328 126.736,355.209C128.284,358.493 126.914,362.417 123.685,364.024C120.427,363.539 114.94,356.5 107.913,356.449L107.753,356.449C100.605,356.449 94.844,360.022 91.93,366.273C87.374,376.046 90.897,390.337 97.046,397.552C97.082,397.594 97.118,397.636 97.155,397.677C108.177,410.043 122.704,410.716 130.387,410.016C145.216,408.665 159.476,400.089 166.716,388.169C166.736,388.136 166.756,388.103 166.776,388.069C182.675,360.958 174.4,325.135 147.878,306.472C129.245,293.624 105.688,290.686 83.248,298.412C58.855,306.812 39.791,326.179 32.246,350.236C17.592,397.389 44.582,449.315 92.439,465.997L92.539,466.033C118.94,475.845 149.039,473.833 175.12,460.517C202.137,446.719 222.211,422.367 230.184,393.745C237.548,367.857 233.842,335.715 220.015,305.559C218.289,301.794 213.835,300.14 210.071,301.868C206.306,303.595 204.653,308.046 206.38,311.811C218.741,338.768 222.158,367.136 215.745,389.68C208.884,414.313 191.59,435.263 168.299,447.157C145.95,458.57 120.242,460.327 97.741,451.964L97.351,451.823C57.07,437.781 34.291,394.206 46.567,354.705C52.687,335.193 68.226,319.45 88.134,312.594C106.02,306.436 124.694,308.703 139.307,318.78C159.421,332.934 165.811,360.003 153.87,380.429C149.078,388.276 139.104,394.16 129.03,395.078C124.173,395.514 115.057,395.153 108.417,387.764C105.36,384.113 103.848,376.216 105.529,372.61C105.793,372.045 106.009,371.581 107.172,371.472C107.879,371.861 109.095,372.715 109.946,373.313C114.337,376.397 121.688,381.56 129.973,377.646C140.763,372.547 145.399,359.611 140.308,348.813C134.036,335.509 121.619,327.813 107.137,328.149C88.785,328.589 70.712,341.66 65.098,358.555C58.304,378.997 62.265,400.522 75.682,416.121L75.897,416.369C89.982,432.279 110.781,440.253 132.955,438.228C156.846,436.051 179.082,422.452 190.985,402.74C190.993,402.727 191.045,402.638 191.052,402.626C191.072,402.595 191.091,402.563 191.11,402.53C214.533,362.732 202.684,310.353 164.101,283.261C164.081,283.247 164.018,283.202 163.997,283.189C137.877,265.147 105.091,260.932 74.047,271.625C41.193,282.939 15.474,309.161 5.242,341.787C-13.872,403.286 20.963,470.957 82.902,492.669C96.964,497.867 111.826,500.503 127.081,500.503C148.027,500.502 169.085,495.402 187.978,485.752C222.027,468.364 247.34,437.615 257.418,401.432C258.243,398.531 259.254,394.321 260.533,388.992C264.98,370.464 273.259,335.976 283.384,321.757C283.495,321.604 283.604,321.446 283.71,321.29C304.249,290.979 340.347,273.964 380.244,275.722C405.815,276.707 430.204,288.717 447.16,308.673C463.63,328.056 471.065,352.018 468.096,376.147L468.047,376.582C463.701,419.029 426.577,451.285 385.322,448.455C364.908,447.008 345.995,435.506 334.728,417.686C324.632,401.721 322.533,383.045 328.946,366.513C338.059,343.661 362.916,331.187 385.55,338.085C394.295,340.936 402.326,349.287 405.545,358.883C407.093,363.501 408.838,372.454 403.188,380.615C399.372,385.775 393.265,386.52 389.515,386.423C388.296,386.032 386.908,385.26 386.521,384.732C386.623,384.013 387.293,382.354 387.748,381.234C389.631,376.581 393.135,367.921 386.202,359.749C378.906,351.151 367.815,350.688 357.94,358.573C346.471,367.739 341.823,381.594 345.509,395.636C349.899,412.36 365.727,426.536 383.162,429.346C401.55,432.275 425.026,424.293 438.36,405.887L438.51,405.675C450.725,388.293 453.671,366.214 446.592,345.102C438.959,322.334 420.59,303.822 398.695,296.801L398.423,296.715C354.328,283.123 306.157,306.737 288.728,350.473C288.694,350.557 288.661,350.642 288.628,350.727C277.148,380.286 280.615,413.135 298.145,440.856C298.957,442.139 299.796,443.409 300.641,444.629C302.998,448.037 307.67,448.886 311.076,446.53C314.483,444.174 315.334,439.502 312.977,436.096C312.245,435.041 311.521,433.945 310.819,432.836Z" style="fill:white;fill-rule:nonzero;"/>
            <path d="M480.142,280.603C455.36,251.435 419.584,233.875 382.031,232.428C361.566,231.511 341.664,234.256 322.876,240.563C300.805,247.053 276.919,253.076 249.044,249.537C248.847,249.511 248.65,249.488 248.494,249.474C212.105,245.715 180.037,221.984 162.695,185.957C151.478,162.979 150.508,135.827 160.032,111.463C169.264,87.846 186.521,70.355 209.983,60.862C249.427,44.606 295.385,62.06 312.423,99.761C320.795,118.413 319.625,140.501 309.293,158.847C300.009,175.333 284.539,186.038 266.921,188.211C242.474,191 219.733,174.997 215.106,151.778C213.482,142.736 217.031,131.719 223.946,124.345C227.281,120.79 234.348,115.004 244.231,116.116C250.226,116.989 253.724,121.526 255.514,124.843C252.532,124.729 249.534,125.253 246.682,126.398C241.31,128.553 237.102,132.673 234.832,137.996C230.145,148.976 235.258,161.73 246.232,166.426C259.738,172.202 274.14,169.735 284.762,159.828C297.861,147.605 302.893,124.853 295.984,109.119C287.55,89.846 271.443,76.853 251.794,73.471C230.491,69.804 208.278,77.738 192.378,94.693C175.969,112.19 168.372,137.124 172.553,159.768L172.598,160.003C180.77,201.636 218.13,231.851 261.435,231.85L261.444,231.85C296.254,231.85 329.042,212.028 347.012,180.119C364.066,149.835 365.894,113.146 351.895,81.958C350.65,79.202 349.281,76.464 347.827,73.819C345.832,70.189 341.269,68.867 337.641,70.86C334.011,72.856 332.687,77.416 334.682,81.045C335.949,83.349 337.141,85.733 338.217,88.117C350.268,114.963 348.669,146.605 333.942,172.76C318.626,199.956 290.846,216.851 261.443,216.851L261.435,216.851C225.285,216.851 194.112,191.728 187.303,157.042C183.971,138.998 190.109,119.04 203.319,104.954C215.76,91.689 232.931,85.449 249.25,88.254C264.055,90.801 275.771,100.347 282.245,115.141C286.145,124.021 283.673,140.328 274.528,148.86C268.291,154.678 260.125,156.052 252.132,152.636C248.756,151.191 247.185,147.265 248.629,143.882C249.327,142.245 250.62,140.98 252.269,140.318C253.915,139.658 255.717,139.677 257.263,140.338C257.425,140.409 257.577,140.471 257.725,140.529C260.399,141.576 263.441,141.006 265.553,139.055C279.42,126.245 264.85,103.848 246.224,101.248C246.167,101.24 246.111,101.232 246.054,101.226C229.589,99.319 218.281,108.459 213.005,114.084C202.826,124.937 197.862,140.81 200.358,154.521C200.365,154.558 200.372,154.596 200.379,154.633C206.486,185.483 236.451,206.77 268.687,203.106C291.152,200.337 310.716,186.888 322.363,166.207C335.021,143.731 336.421,116.596 326.099,93.601C305.759,48.594 251.104,27.683 204.31,46.977C177.364,57.879 156.677,78.842 146.059,106.003C135.012,134.261 136.162,165.802 149.195,192.5C168.796,233.22 205.34,260.096 246.951,264.394C246.965,264.396 247.092,264.411 247.106,264.413C277.96,268.329 303.614,261.867 327.245,254.913C327.338,254.886 327.43,254.856 327.521,254.825C344.588,249.079 362.709,246.586 381.406,247.415C414.817,248.703 446.637,264.339 468.707,290.316C490.019,315.398 500.036,347.893 496.19,379.466L496.175,379.601C490.52,434.184 443.991,476.944 390.247,476.948L390.208,476.948C387.934,476.948 385.623,476.869 383.355,476.713C365.296,475.432 348.005,468.801 333.351,457.537C330.065,455.013 325.359,455.63 322.833,458.912C320.309,462.196 320.925,466.905 324.208,469.429C341.203,482.492 361.289,490.185 382.311,491.677C384.936,491.858 387.593,491.948 390.208,491.948L390.251,491.948C451.554,491.944 504.62,443.308 511.089,381.214C515.421,345.517 504.141,308.85 480.142,280.603Z" style="fill:white;fill-rule:nonzero;"/>
        </g>
    </g>
</svg>
